<?xml version="1.0" standalone="no"?>
<!DOCTYPE svg PUBLIC "-//W3C//DTD SVG 20010904//EN"
 "http://www.w3.org/TR/2001/REC-SVG-20010904/DTD/svg10.dtd">
<svg version="1.0" xmlns="http://www.w3.org/2000/svg"
 width="32.000000pt" height="32.000000pt" viewBox="0 0 32.000000 32.000000"
 preserveAspectRatio="xMidYMid meet">

<g transform="translate(0.000000,32.000000) scale(0.100000,-0.100000)"
fill="#000000" stroke="none">
<path d="M157 303 c-4 -3 -7 -18 -7 -33 0 -27 -36 -70 -58 -70 -8 0 -12 -26
-12 -83 l0 -82 42 -19 c49 -21 134 -18 149 5 4 7 16 42 25 77 21 79 14 96 -45
100 -39 3 -41 5 -41 35 0 50 -11 77 -29 77 -10 0 -21 -3 -24 -7z"/>
<path d="M12 113 c3 -97 3 -98 28 -98 25 0 25 1 28 98 l3 97 -31 0 -31 0 3
-97z m38 72 c0 -8 -4 -15 -10 -15 -5 0 -10 7 -10 15 0 8 5 15 10 15 6 0 10 -7
10 -15z"/>
</g>
</svg>
