<?xml version="1.0" standalone="no"?>
<!DOCTYPE svg PUBLIC "-//W3C//DTD SVG 20010904//EN"
 "http://www.w3.org/TR/2001/REC-SVG-20010904/DTD/svg10.dtd">
<svg version="1.0" xmlns="http://www.w3.org/2000/svg"
 width="1200.000000pt" height="2178.000000pt" viewBox="0 0 1200.000000 2178.000000"
 preserveAspectRatio="xMidYMid meet" fill="#e60a15">

<g transform="translate(0.000000,2178.000000) scale(0.100000,-0.100000)"
fill="#000000" stroke="none">
<path d="M5 21769 c-3 -8 -4 -4908 -3 -10889 l3 -10875 101 -3 c81 -2 104 0
114 13 9 11 34 15 101 15 53 0 89 4 89 10 0 6 41 10 104 10 59 0 108 4 111 10
3 6 51 10 110 10 82 0 104 3 109 15 4 12 26 15 110 15 59 0 108 4 111 10 3 6
50 10 104 10 75 0 101 4 111 15 10 12 37 15 126 15 64 0 115 4 119 10 4 6 55
10 119 10 89 0 116 3 126 15 10 12 37 15 126 15 69 0 114 4 114 10 0 6 53 10
139 10 83 0 142 4 146 10 4 6 66 10 154 10 120 0 151 3 161 15 10 12 43 15
176 15 103 0 164 4 164 10 0 6 70 10 189 10 155 0 191 3 201 15 10 12 48 15
221 15 128 0 210 4 214 10 4 6 98 10 251 10 231 0 245 1 264 20 20 20 20 34
21 4643 0 3774 3 4616 13 4592 8 -16 743 -2095 1636 -4620 892 -2525 1629
-4596 1638 -4602 10 -9 53 -13 126 -13 332 0 1363 -62 2106 -125 726 -62 1745
-173 2138 -232 l32 -5 -2 10888 -3 10889 -2147 3 -2148 2 0 -4812 c-1 -3963
-3 -4809 -14 -4788 -7 14 -773 2175 -1702 4802 l-1689 4778 -2120 3 c-1166 1
-2130 6 -2142 11 -16 6 -24 4 -28 -5z" fill="#e60a15"/>
</g>
</svg>
