<?xml version="1.0" standalone="no"?>
<!DOCTYPE svg PUBLIC "-//W3C//DTD SVG 20010904//EN"
 "http://www.w3.org/TR/2001/REC-SVG-20010904/DTD/svg10.dtd">
<svg version="1.0" xmlns="http://www.w3.org/2000/svg"
 width="3500.000000pt" height="946.000000pt" viewBox="0 0 3500.000000 946.000000"
 preserveAspectRatio="xMidYMid meet" fill="#e60a15">

<g transform="translate(0.000000,946.000000) scale(0.100000,-0.100000)"
fill="#000000" stroke="none">
<path d="M0 4730 l0 -4729 28 4 c34 6 225 35 492 75 225 33 579 80 790 105 74
8 150 18 167 21 l33 5 2 2570 3 2571 835 -2457 c459 -1351 838 -2461 842
-2467 4 -8 70 -3 225 15 120 15 387 45 593 67 206 22 468 54 582 70 114 17
210 30 213 30 3 0 5 1991 5 4425 l0 4425 -740 0 -740 0 -2 -2680 -3 -2680
-909 2543 c-500 1398 -932 2604 -959 2680 l-50 137 -703 0 -704 0 0 -4730z" fill="#e60a15"/>
<path d="M6250 5094 l0 -4366 58 6 c31 4 424 35 872 71 957 76 2780 220 2995
238 l150 12 3 707 2 708 -47 0 c-203 0 -1169 -58 -2186 -130 -152 -11 -300
-20 -327 -20 l-50 0 0 1095 0 1095 23 5 c53 11 763 25 1331 25 l616 0 0 740 0
740 -132 0 c-73 0 -443 -7 -823 -15 -379 -8 -763 -15 -852 -15 l-163 0 0 995
0 995 1305 0 1305 0 0 740 0 740 -2040 0 -2040 0 0 -4366z" fill="#e60a15"/>
<path d="M11292 8723 l3 -738 763 -3 762 -2 0 -3411 0 -3410 22 7 c13 4 345
10 738 13 l715 6 3 3398 2 3397 765 0 765 0 0 740 0 740 -2270 0 -2270 0 2
-737z" fill="#e60a15"/>
<path d="M16780 5360 l0 -4100 730 0 730 0 0 1680 0 1680 1010 0 1010 0 0 740
0 740 -1010 0 -1010 0 0 940 0 940 1340 0 1340 0 0 740 0 740 -2070 0 -2070 0
0 -4100z" fill="#e60a15"/>
<path d="M21840 5310 l0 -4150 128 0 c499 0 2211 -83 3522 -170 162 -11 305
-20 318 -20 l22 0 0 729 0 730 -42 5 c-24 3 -101 8 -173 11 -71 3 -391 21
-710 40 -603 36 -1074 59 -1402 71 l-193 7 0 3448 0 3449 -735 0 -735 0 0
-4150z" fill="#e60a15"/>
<path d="M27080 5166 l0 -4294 63 -6 c34 -3 186 -13 337 -21 429 -25 826 -56
1008 -81 l42 -5 0 4350 0 4351 -725 0 -725 0 0 -4294z" fill="#e60a15"/>
<path d="M29793 9448 c39 -98 1711 -4408 1714 -4419 4 -12 -1256 -2901 -1852
-4250 l-43 -97 91 -11 c49 -7 282 -32 516 -56 500 -53 537 -57 784 -92 161
-22 190 -24 198 -12 4 8 248 571 541 1251 293 681 535 1238 538 1238 3 0 241
-615 530 -1366 432 -1124 529 -1366 545 -1369 84 -18 1638 -266 1641 -262 1 1
-419 1113 -933 2472 -513 1359 -932 2479 -930 2490 4 17 1851 4468 1864 4488
2 4 -359 7 -804 7 l-808 0 -495 -1187 c-271 -654 -505 -1213 -518 -1243 l-24
-54 -482 1239 -482 1240 -798 3 c-637 2 -797 0 -793 -10z" fill="#e60a15"/>
</g>
</svg>
